<svg width="153" height="36" viewBox="0 0 153 36" fill="none" xmlns="http://www.w3.org/2000/svg">
<path d="M46.656 9.864H51.96L55.968 21.648H56.016L59.808 9.864H65.112V27H61.584V14.856H61.536L57.336 27H54.432L50.232 14.976H50.184V27H46.656V9.864ZM72.6294 18.024L67.1094 9.864H71.4774L74.8374 15.336L78.3174 9.864H82.4454L76.9494 18.048L82.9254 27H78.4374L74.6934 21.072L70.8774 27H66.6534L72.6294 18.024ZM84.4373 9.864H97.2533V13.032H88.2053V16.704H96.5093V19.632H88.2053V23.832H97.4453V27H84.4373V9.864ZM106.415 9.864H109.823V27H106.415V9.864ZM112.363 18.408C112.411 17.608 112.611 16.944 112.963 16.416C113.315 15.888 113.763 15.464 114.307 15.144C114.851 14.824 115.459 14.6 116.131 14.472C116.819 14.328 117.507 14.256 118.195 14.256C118.819 14.256 119.451 14.304 120.091 14.4C120.731 14.48 121.315 14.648 121.843 14.904C122.371 15.16 122.803 15.52 123.139 15.984C123.475 16.432 123.643 17.032 123.643 17.784V24.24C123.643 24.8 123.675 25.336 123.739 25.848C123.803 26.36 123.915 26.744 124.075 27H120.619C120.555 26.808 120.499 26.616 120.451 26.424C120.419 26.216 120.395 26.008 120.379 25.8C119.835 26.36 119.195 26.752 118.459 26.976C117.723 27.2 116.971 27.312 116.203 27.312C115.611 27.312 115.059 27.24 114.547 27.096C114.035 26.952 113.587 26.728 113.203 26.424C112.819 26.12 112.515 25.736 112.291 25.272C112.083 24.808 111.979 24.256 111.979 23.616C111.979 22.912 112.099 22.336 112.339 21.888C112.595 21.424 112.915 21.056 113.299 20.784C113.699 20.512 114.147 20.312 114.643 20.184C115.155 20.04 115.667 19.928 116.179 19.848C116.691 19.768 117.195 19.704 117.691 19.656C118.187 19.608 118.627 19.536 119.011 19.44C119.395 19.344 119.699 19.208 119.923 19.032C120.147 18.84 120.251 18.568 120.235 18.216C120.235 17.848 120.171 17.56 120.043 17.352C119.931 17.128 119.771 16.96 119.563 16.848C119.371 16.72 119.139 16.64 118.867 16.608C118.611 16.56 118.331 16.536 118.027 16.536C117.355 16.536 116.827 16.68 116.443 16.968C116.059 17.256 115.835 17.736 115.771 18.408H112.363ZM120.235 20.928C120.091 21.056 119.907 21.16 119.683 21.24C119.475 21.304 119.243 21.36 118.987 21.408C118.747 21.456 118.491 21.496 118.219 21.528C117.947 21.56 117.675 21.6 117.403 21.648C117.147 21.696 116.891 21.76 116.635 21.84C116.395 21.92 116.179 22.032 115.987 22.176C115.811 22.304 115.667 22.472 115.555 22.68C115.443 22.888 115.387 23.152 115.387 23.472C115.387 23.776 115.443 24.032 115.555 24.24C115.667 24.448 115.819 24.616 116.011 24.744C116.203 24.856 116.427 24.936 116.683 24.984C116.939 25.032 117.203 25.056 117.475 25.056C118.147 25.056 118.667 24.944 119.035 24.72C119.403 24.496 119.675 24.232 119.851 23.928C120.027 23.608 120.131 23.288 120.163 22.968C120.211 22.648 120.235 22.392 120.235 22.2V20.928ZM135.384 20.808C135.384 20.28 135.328 19.776 135.216 19.296C135.104 18.816 134.928 18.392 134.688 18.024C134.448 17.656 134.144 17.368 133.776 17.16C133.424 16.936 132.992 16.824 132.48 16.824C131.984 16.824 131.552 16.936 131.184 17.16C130.816 17.368 130.512 17.656 130.272 18.024C130.032 18.392 129.856 18.816 129.744 19.296C129.632 19.776 129.576 20.28 129.576 20.808C129.576 21.32 129.632 21.816 129.744 22.296C129.856 22.776 130.032 23.2 130.272 23.568C130.512 23.936 130.816 24.232 131.184 24.456C131.552 24.664 131.984 24.768 132.48 24.768C132.992 24.768 133.424 24.664 133.776 24.456C134.144 24.232 134.448 23.936 134.688 23.568C134.928 23.2 135.104 22.776 135.216 22.296C135.328 21.816 135.384 21.32 135.384 20.808ZM126.288 9.864H129.696V16.104H129.744C130.16 15.464 130.72 15 131.424 14.712C132.144 14.408 132.888 14.256 133.656 14.256C134.28 14.256 134.896 14.384 135.504 14.64C136.112 14.896 136.656 15.288 137.136 15.816C137.632 16.344 138.032 17.024 138.336 17.856C138.64 18.672 138.792 19.648 138.792 20.784C138.792 21.92 138.64 22.904 138.336 23.736C138.032 24.552 137.632 25.224 137.136 25.752C136.656 26.28 136.112 26.672 135.504 26.928C134.896 27.184 134.28 27.312 133.656 27.312C132.744 27.312 131.928 27.168 131.208 26.88C130.488 26.592 129.944 26.104 129.576 25.416H129.528V27H126.288V9.864ZM143.6 22.968C143.6 23.336 143.672 23.656 143.816 23.928C143.976 24.184 144.176 24.4 144.416 24.576C144.656 24.736 144.928 24.856 145.232 24.936C145.552 25.016 145.88 25.056 146.216 25.056C146.456 25.056 146.704 25.032 146.96 24.984C147.232 24.92 147.472 24.832 147.68 24.72C147.904 24.592 148.088 24.432 148.232 24.24C148.376 24.032 148.448 23.776 148.448 23.472C148.448 22.96 148.104 22.576 147.416 22.32C146.744 22.064 145.8 21.808 144.584 21.552C144.088 21.44 143.6 21.312 143.12 21.168C142.656 21.008 142.24 20.808 141.872 20.568C141.504 20.312 141.208 20 140.984 19.632C140.76 19.248 140.648 18.784 140.648 18.24C140.648 17.44 140.8 16.784 141.104 16.272C141.424 15.76 141.84 15.36 142.352 15.072C142.864 14.768 143.44 14.56 144.08 14.448C144.72 14.32 145.376 14.256 146.048 14.256C146.72 14.256 147.368 14.32 147.992 14.448C148.632 14.576 149.2 14.792 149.696 15.096C150.192 15.4 150.6 15.808 150.92 16.32C151.256 16.816 151.456 17.448 151.52 18.216H148.28C148.232 17.56 147.984 17.12 147.536 16.896C147.088 16.656 146.56 16.536 145.952 16.536C145.76 16.536 145.552 16.552 145.328 16.584C145.104 16.6 144.896 16.648 144.704 16.728C144.528 16.808 144.376 16.928 144.248 17.088C144.12 17.232 144.056 17.432 144.056 17.688C144.056 17.992 144.168 18.24 144.392 18.432C144.616 18.624 144.904 18.784 145.256 18.912C145.624 19.024 146.04 19.128 146.504 19.224C146.968 19.32 147.44 19.424 147.92 19.536C148.416 19.648 148.896 19.784 149.36 19.944C149.84 20.104 150.264 20.32 150.632 20.592C151 20.848 151.296 21.176 151.52 21.576C151.744 21.96 151.856 22.44 151.856 23.016C151.856 23.832 151.688 24.52 151.352 25.08C151.032 25.624 150.608 26.064 150.08 26.4C149.552 26.736 148.944 26.968 148.256 27.096C147.584 27.24 146.896 27.312 146.192 27.312C145.472 27.312 144.768 27.24 144.08 27.096C143.392 26.952 142.776 26.712 142.232 26.376C141.704 26.04 141.264 25.6 140.912 25.056C140.576 24.496 140.392 23.8 140.36 22.968H143.6Z" fill="black"/>
<path d="M17.4463 18.0598L1.47553 1.35854C0.940834 0.800472 0 1.17739 0 1.95168V35.1205C0 35.699 0.558073 36.111 1.1103 35.9415C3.64062 35.1555 7.9445 33.3644 11.778 29.3118C15.4858 25.3936 17.011 21.2037 17.6538 18.8809C17.7356 18.5887 17.6538 18.279 17.4463 18.0627" fill="#0828B1"/>
<path d="M34.8928 0.035055C32.868 0.62819 31.074 1.44631 29.4845 2.41052C31.0185 9.33821 32.1463 17.0986 33.2683 24.2396C30.8373 18.2528 28.158 11.3251 25.8673 5.13368C24.9761 5.94887 24.1814 6.80497 23.4713 7.66399C26.4779 13.7414 29.0199 19.5471 31.5532 25.7093C28.0148 20.8444 24.6927 16.2951 20.8797 11.4127C19.3983 13.9664 18.6415 16.1695 18.3581 17.1074C18.2675 17.4025 18.3464 17.7239 18.5597 17.946L34.5247 34.5917C35.0594 35.1498 36.0002 34.77 36.0002 33.9986V0.859016C36.0002 0.286334 35.4451 -0.125647 34.8958 0.035055" fill="#0680EE"/>
</svg>
